<svg xmlns="http://www.w3.org/2000/svg" viewBox="0 0 512 512" role="img" aria-labelledby="title desc">
  <title id="title">eslint-plugin-actionlint logo</title>
  <desc id="desc">A workflow graph with a check mark on a blue and teal gradient background.</desc>
  <defs>
    <linearGradient id="bg" x1="64" x2="448" y1="64" y2="448" gradientUnits="userSpaceOnUse">
      <stop stop-color="#111827" />
      <stop offset="0.5" stop-color="#2563eb" />
      <stop offset="1" stop-color="#0f766e" />
    </linearGradient>
    <filter id="shadow" x="-20%" y="-20%" width="140%" height="140%">
      <feDropShadow dx="0" dy="18" stdDeviation="18" flood-color="#0f172a" flood-opacity="0.32" />
    </filter>
  </defs>
  <rect width="512" height="512" rx="112" fill="url(#bg)" />
  <g filter="url(#shadow)">
    <path d="M154 162h204a34 34 0 0 1 34 34v120a34 34 0 0 1-34 34H154a34 34 0 0 1-34-34V196a34 34 0 0 1 34-34Z" fill="#eff6ff" />
    <path d="M174 210h70m-70 46h116m-116 46h78" stroke="#2563eb" stroke-width="20" stroke-linecap="round" />
    <path d="M323 230v-32m0 32h-44m44 0h52m-96 0v48m96-48v48" stroke="#0f766e" stroke-width="18" stroke-linecap="round" stroke-linejoin="round" />
    <circle cx="323" cy="198" r="22" fill="#d9f99d" />
    <circle cx="279" cy="278" r="22" fill="#bfdbfe" />
    <circle cx="375" cy="278" r="22" fill="#bfdbfe" />
    <path d="m278 353 40 40 86-106" fill="none" stroke="#84cc16" stroke-width="32" stroke-linecap="round" stroke-linejoin="round" />
  </g>
</svg>
